<?xml version="1.0" encoding="UTF-8"?>
<svg version="1.1" xmlns="http://www.w3.org/2000/svg" width="378" height="378">
<path d="M0 0 C124.74 0 249.48 0 378 0 C378 124.74 378 249.48 378 378 C253.26 378 128.52 378 0 378 C0 253.26 0 128.52 0 0 Z " fill="#000000" transform="translate(0,0)"/>
<path d="M0 0 C11.22 0 22.44 0 34 0 C29.50497547 7.86629292 29.50497547 7.86629292 27.44140625 10.734375 C26.98000244 11.38075928 26.51859863 12.02714355 26.04321289 12.69311523 C25.55457764 13.37188721 25.06594238 14.05065918 24.5625 14.75 C20.1536253 20.92978064 15.82633858 27.1568412 11.5625 33.4375 C5.22267407 42.76026318 -1.36449103 51.88528987 -8 61 C1.24 61 10.48 61 20 61 C20.66 59.35 21.32 57.7 22 56 C23.60339148 53.67833439 25.23141711 51.4302949 26.9375 49.1875 C30.83807131 43.96554996 34.64129248 38.6982974 38.3125 33.3125 C42.65348676 26.95514713 47.02951665 20.62363087 51.4375 14.3125 C52.02893799 13.46276611 52.62037598 12.61303223 53.22973633 11.73754883 C54.07314575 10.53134888 54.07314575 10.53134888 54.93359375 9.30078125 C55.42915771 8.59091064 55.92472168 7.88104004 56.43530273 7.1496582 C56.95165283 6.440271 57.46800293 5.73088379 58 5 C58.82914917 3.64455078 58.82914917 3.64455078 59.67504883 2.26171875 C62.42989461 -0.41820263 64.16576695 -0.56846201 67.94195557 -0.56648254 C68.70876648 -0.54067612 69.47557739 -0.51486969 70.265625 -0.48828125 C71.05902283 -0.48120651 71.85242065 -0.47413177 72.66986084 -0.46684265 C75.19754365 -0.43891048 77.72298988 -0.37617989 80.25 -0.3125 C81.96611378 -0.28741535 83.68226238 -0.26460246 85.3984375 -0.24414062 C89.59981671 -0.18908839 93.79952952 -0.10282863 98 0 C96.7473218 3.39236201 95.32892465 6.21621196 93.234375 9.16015625 C92.68088379 9.94398682 92.12739258 10.72781738 91.55712891 11.53540039 C90.96077637 12.36934326 90.36442383 13.20328613 89.75 14.0625 C88.48159174 15.85403989 87.21336796 17.64571039 85.9453125 19.4375 C85.29336914 20.3553125 84.64142578 21.273125 83.96972656 22.21875 C81.43555592 25.79699393 78.92704654 29.39279088 76.41918945 32.98950195 C68.25594239 44.6961914 68.25594239 44.6961914 64.0625 50.375 C59.4145598 56.70219601 55.05628078 63.22925952 50.64892578 69.72485352 C46.2731906 76.16352921 41.81846838 82.53177173 37.24609375 88.83203125 C34.41224423 92.82899118 31.71782672 96.92325992 29 101 C39.23 101 49.46 101 60 101 C56.66806807 103.49894895 53.78107941 105.21937175 50.08203125 107.0390625 C48.91704102 107.61575684 47.75205078 108.19245117 46.55175781 108.78662109 C45.94029907 109.08719421 45.32884033 109.38776733 44.69885254 109.69744873 C41.53565558 111.25284588 38.37900407 112.82138602 35.22265625 114.390625 C34.60031097 114.6998288 33.9779657 115.00903259 33.33676147 115.3276062 C25.81429517 119.0743671 18.3940768 123.00719853 11 127 C3.39059865 119.54968021 -4.21972934 112.02243592 -5.4375 101.0625 C-5.0819578 92.96328727 0.78408505 86.23291694 5.4375 80 C6.56374871 78.48105468 7.68747377 76.96023472 8.80859375 75.4375 C9.30157959 74.77621094 9.79456543 74.11492187 10.30249023 73.43359375 C12.67010468 70.03932066 14.83049143 66.52317912 17 63 C15.86981445 63.57032959 14.73962891 64.14065918 13.57519531 64.72827148 C9.38029377 66.84382662 5.18274406 68.95407991 0.984375 71.06274414 C-0.83210725 71.97601303 -2.64786879 72.89071689 -4.46289062 73.80688477 C-7.07233403 75.1237401 -9.68432834 76.43540808 -12.296875 77.74609375 C-13.51271271 78.36175453 -13.51271271 78.36175453 -14.75311279 78.98985291 C-15.51359924 79.37017166 -16.27408569 79.75049042 -17.05761719 80.14233398 C-17.72380066 80.47764633 -18.38998413 80.81295868 -19.07635498 81.15843201 C-21.03210724 82.01404647 -22.91796449 82.54420372 -25 83 C-37.56232898 67.12065157 -37.56232898 67.12065157 -37.38671875 57.71875 C-36.66637227 52.65449595 -33.91505215 49.10286779 -31 45 C-30.10495022 43.71780973 -29.21046172 42.43522754 -28.31640625 41.15234375 C-26.27942045 38.24390753 -24.22651638 35.34745437 -22.1640625 32.45703125 C-19.12478315 28.19067315 -16.14655221 23.88476905 -13.1875 19.5625 C-9.5763533 14.28818142 -5.93753894 9.03623917 -2.2421875 3.8203125 C-0.95419252 2.02068459 -0.95419252 2.02068459 0 0 Z " fill="#FB4B44" transform="translate(159,74)"/>
<path d="M0 0 C124.74 0 249.48 0 378 0 C378 124.74 378 249.48 378 378 C253.26 378 128.52 378 0 378 C0 253.26 0 128.52 0 0 Z M18 28 C10.02573739 38.12631257 5.41999205 48.62767582 2 61 C1.82133276 61.63061 1.64266553 62.26122 1.45858413 62.9109394 C0.97623439 65.10826325 0.8712076 67.05967481 0.86577892 69.30778217 C0.86132108 70.16689459 0.85686324 71.02600701 0.85227031 71.91115314 C0.85245467 72.85033421 0.85263903 73.78951527 0.85282898 74.75715637 C0.84915229 75.75862802 0.8454756 76.76009966 0.8416875 77.79191893 C0.83064799 81.15791531 0.82680629 84.52388081 0.82299805 87.88989258 C0.81673339 90.29961241 0.81008659 92.70933127 0.80308533 95.11904907 C0.78385377 102.35963752 0.77325427 109.60022341 0.76435754 116.84082964 C0.75997024 120.25534962 0.75460439 123.66986806 0.74936867 127.08438683 C0.73235404 138.44483652 0.71786339 149.80528526 0.71061993 161.16574574 C0.70871019 164.11301996 0.70678984 167.06029417 0.70483398 170.00756836 C0.70435024 170.74005355 0.7038665 171.47253873 0.7033681 172.22722044 C0.69508107 184.07325746 0.66976774 195.91919306 0.63725331 207.76518587 C0.60410104 219.94353059 0.58616361 232.12182394 0.58297569 244.30021399 C0.58081758 251.13117903 0.57217274 257.96199639 0.54651451 264.79291725 C0.52240171 271.22713012 0.51903288 277.66115018 0.52927589 284.09540176 C0.52976949 286.44828486 0.52350162 288.80118134 0.50971985 291.15402412 C0.42252162 306.93243758 1.20435483 321.07836427 8.75 335.3125 C9.09216553 335.97564209 9.43433105 336.63878418 9.78686523 337.32202148 C12.8727967 343.11528145 16.5739496 348.14854189 21 353 C21.51691406 353.6084375 22.03382812 354.216875 22.56640625 354.84375 C33.25788374 366.63385049 51.54672236 376.02929895 67.38285089 377.17193103 C74.51808565 377.46736616 81.6582042 377.41932602 88.7980957 377.40405273 C91.20899776 377.40976152 93.61989711 377.41672774 96.03079224 377.42485046 C101.87762852 377.44088759 107.72434121 377.44289361 113.57119481 377.43763756 C118.32860917 377.43358052 123.0859919 377.43505753 127.84340477 377.44038582 C128.52296227 377.44113424 129.20251978 377.44188266 129.90266993 377.44265376 C131.28362456 377.4441854 132.66457918 377.44572374 134.0455338 377.44726873 C146.96938554 377.46096776 159.8931766 377.45557469 172.81702694 377.44408352 C184.61083501 377.43415667 196.40448608 377.4470869 208.19826994 377.47101771 C220.3407218 377.49546822 232.48310072 377.50500184 244.62557667 377.49836498 C251.42957735 377.49488558 258.23345743 377.49701954 265.03743935 377.51461601 C271.43897915 377.53014426 277.84022054 377.52606421 284.24174881 377.50731087 C286.5817287 377.5036411 288.92173098 377.50668597 291.26169014 377.51719666 C306.99268005 377.58242445 321.12230288 376.77235291 335.3125 369.25 C335.97564209 368.90783447 336.63878418 368.56566895 337.32202148 368.21313477 C343.11528145 365.1272033 348.14854189 361.4260504 353 357 C353.6084375 356.48308594 354.216875 355.96617187 354.84375 355.43359375 C363.74788856 347.35915901 370.33022715 335.33075852 374 324 C374.36955102 322.95501956 374.36955102 322.95501956 374.74656773 321.88892841 C378.09466579 310.90611698 377.42836811 299.56875149 377.40405273 288.2019043 C377.40976152 285.79100224 377.41672774 283.38010289 377.42485046 280.96920776 C377.44088759 275.12237148 377.44289361 269.27565879 377.43763756 263.42880519 C377.43358052 258.67139083 377.43505753 253.9140081 377.44038582 249.15659523 C377.44113424 248.47703773 377.44188266 247.79748022 377.44265376 247.09733007 C377.4441854 245.71637544 377.44572374 244.33542082 377.44726873 242.9544662 C377.46096776 230.03061446 377.45557469 217.1068234 377.44408352 204.18297306 C377.43415667 192.38916499 377.4470869 180.59551392 377.47101771 168.80173006 C377.49546822 156.6592782 377.50500184 144.51689928 377.49836498 132.37442333 C377.49488558 125.57042265 377.49701954 118.76654257 377.51461601 111.96256065 C377.53014426 105.56102085 377.52606421 99.15977946 377.50731087 92.75825119 C377.5036411 90.4182713 377.50668597 88.07826902 377.51719666 85.73830986 C377.61544295 62.04424918 373.21427778 43.07112759 357 25 C356.48308594 24.39027344 355.96617187 23.78054687 355.43359375 23.15234375 C344.30625061 10.90947749 325.96750027 1.98366042 309.55866289 0.82806897 C302.40485754 0.5356251 295.24674785 0.58060926 288.08837891 0.59594727 C285.67732935 0.59023746 283.2662825 0.58327085 280.85523987 0.57514954 C275.01188276 0.55912266 269.16864936 0.55710378 263.32527496 0.56236244 C258.57074493 0.5664213 253.81624653 0.56494035 249.06171799 0.55961418 C248.38229597 0.55886576 247.70287396 0.55811734 247.0028634 0.55734624 C245.6221503 0.55581459 244.24143722 0.55427624 242.86072414 0.55273127 C229.94354445 0.53903686 217.02642552 0.54442231 204.10924725 0.55591648 C192.32196926 0.5658455 180.53484833 0.55290851 168.74759455 0.52898229 C156.60963108 0.50453206 144.47174057 0.49499793 132.33375299 0.50163502 C125.53312065 0.50511414 118.73260896 0.5029822 111.93199539 0.48538399 C105.53454614 0.46985617 99.13739551 0.47393531 92.73995781 0.49268913 C90.40158963 0.49635886 88.06319904 0.49331414 85.72485161 0.48280334 C58.87455656 0.37139127 36.30667839 6.80070793 18 28 Z " fill="#E9E9E9" transform="translate(0,0)"/>
<path d="M0 0 C4.62 0 9.24 0 14 0 C14.96023825 2.85353821 15.91824013 5.70779555 16.875 8.5625 C17.14441406 9.36236328 17.41382813 10.16222656 17.69140625 10.98632812 C17.95566406 11.77587891 18.21992188 12.56542969 18.4921875 13.37890625 C18.85352783 14.45507202 18.85352783 14.45507202 19.22216797 15.55297852 C20.21649023 18.68106765 21.09827761 21.84397162 22 25 C22.33 16.75 22.66 8.5 23 0 C28.28 0 33.56 0 39 0 C39 21.78 39 43.56 39 66 C34.38 66 29.76 66 25 66 C22.71106925 60.06115265 20.70281627 54.07628289 18.8125 48 C17.884375 45.03 16.95625 42.06 16 39 C15.67 47.58 15.34 56.16 15 65 C10.05 65 5.1 65 0 65 C0 43.55 0 22.1 0 0 Z " fill="#F8F8F8" transform="translate(127,241)"/>
<path d="M0 0 C7.92 0 15.84 0 24 0 C25.92583078 9.17062277 27.54660766 18.30536257 28.86767578 27.58178711 C29.6130679 32.72047518 30.55725321 37.74496157 31.6875 42.8125 C33.28240666 50.37169303 33.21999757 57.30008502 33 65 C28.05 65 23.1 65 18 65 C17.67 61.04 17.34 57.08 17 53 C13.37 53 9.74 53 6 53 C6.020625 54.588125 6.04125 56.17625 6.0625 57.8125 C6.10335303 60.95818308 6.00496852 62.98509443 5 66 C0.38 66 -4.24 66 -9 66 C-9.4729117 53.35399096 -8.3352315 41.47630044 -6.11914062 29.02734375 C-5.61849037 26.21341226 -5.13960957 23.3963978 -4.6640625 20.578125 C-4.35278948 18.76541388 -4.04033396 16.95290532 -3.7265625 15.140625 C-3.51237167 13.89372894 -3.51237167 13.89372894 -3.29385376 12.62164307 C-3.15385956 11.83932312 -3.01386536 11.05700317 -2.86962891 10.25097656 C-2.68975937 9.23321136 -2.68975937 9.23321136 -2.5062561 8.19488525 C-1.86424805 5.41144424 -0.90331159 2.70993476 0 0 Z " fill="#F7F7F7" transform="translate(210,241)"/>
<path d="M0 0 C7.92 0 15.84 0 24 0 C25.1875 6.8125 25.1875 6.8125 25.60546875 9.24047852 C26.43137776 13.97872259 27.33814925 18.69228185 28.3125 23.40234375 C31.16872442 37.47669874 32.69250301 50.64210416 32 65 C27.38 65 22.76 65 18 65 C17.67 61.04 17.34 57.08 17 53 C13.37 53 9.74 53 6 53 C6.020625 54.216875 6.04125 55.43375 6.0625 56.6875 C6.12011816 60.08697137 5.69466026 62.52669872 5 66 C0.38 66 -4.24 66 -9 66 C-9.81065722 51.21000932 -7.58792506 37.60397142 -4.62841797 23.13574219 C-3.75363447 18.77066091 -2.99346776 14.38903017 -2.25 10 C-1.6589158 6.53597166 -1.11020215 3.33060646 0 0 Z " fill="#F8F8F8" transform="translate(91,241)"/>
<path d="M0 0 C3.28128336 1.80396348 5.35796461 4.16906822 7.375 7.3125 C7.89505789 12.03982621 7.5534222 16.53970602 7.375 21.3125 C2.425 21.3125 -2.525 21.3125 -7.625 21.3125 C-8.12 16.3625 -8.12 16.3625 -8.625 11.3125 C-10.275 11.3125 -11.925 11.3125 -13.625 11.3125 C-13.625 15.6025 -13.625 19.8925 -13.625 24.3125 C-12.67238281 24.49425781 -11.71976562 24.67601562 -10.73828125 24.86328125 C-9.48402344 25.11464844 -8.22976563 25.36601562 -6.9375 25.625 C-5.69613281 25.86863281 -4.45476562 26.11226563 -3.17578125 26.36328125 C1.77297936 27.68621726 4.51891132 29.02836698 7.375 33.3125 C7.86568223 37.23365704 7.7915342 41.17644167 7.8125 45.125 C7.84537109 46.20587891 7.87824219 47.28675781 7.91210938 48.40039062 C7.97234365 57.32053883 7.97234365 57.32053883 5.0703125 60.95703125 C-0.94063054 66.21007278 -6.91532321 66.83174716 -14.7890625 66.59375 C-20.22781483 66.0543696 -23.87193093 64.45362677 -27.5 60.25 C-31.58377403 54.60478295 -30.69863176 50.2338853 -30.625 43.3125 C-25.345 43.3125 -20.065 43.3125 -14.625 43.3125 C-14.295 46.6125 -13.965 49.9125 -13.625 53.3125 C-11.975 53.3125 -10.325 53.3125 -8.625 53.3125 C-8.295 49.0225 -7.965 44.7325 -7.625 40.3125 C-8.72199219 40.14234375 -9.81898438 39.9721875 -10.94921875 39.796875 C-12.40378037 39.55288402 -13.85820034 39.30804755 -15.3125 39.0625 C-16.03373047 38.95292969 -16.75496094 38.84335937 -17.49804688 38.73046875 C-22.19681619 37.91515718 -25.17518593 36.81991765 -28.625 33.3125 C-31.31765043 28.82928735 -30.99264651 24.53346773 -31 19.4375 C-31.02449219 18.55191406 -31.04898438 17.66632813 -31.07421875 16.75390625 C-31.09958045 11.08133883 -30.4361527 7.79252045 -26.625 3.3125 C-19.60659767 -3.02118015 -8.65635893 -4.05817961 0 0 Z " fill="#F9F9F9" transform="translate(275.625,241.6875)"/>
<path d="M0 0 C100.98 0 201.96 0 306 0 C306 0.33 306 0.66 306 1 C304.77177741 1.00146656 303.54355482 1.00293312 302.27811337 1.00444412 C273.0720277 1.04020562 243.86604376 1.09653239 214.6600528 1.17792095 C211.05925761 1.18793748 207.45846197 1.19778177 203.85766602 1.20751953 C203.14086251 1.2094609 202.42405901 1.21140228 201.68553419 1.21340248 C190.10442359 1.24435846 178.52333276 1.2613852 166.94218861 1.27319422 C155.04415948 1.28563907 143.14623355 1.31321526 131.24826962 1.35461307 C124.5715495 1.37741594 117.89494006 1.39291256 111.21816826 1.39188385 C104.925097 1.39113539 98.63235033 1.40916128 92.3393631 1.44116783 C90.03810928 1.44963925 87.73681893 1.45143567 85.43555641 1.44580269 C60.40388794 1.39272418 40.94218062 6.68753442 22.1875 24.4375 C12.24069759 34.94093612 6.80783946 47.22458079 3 61 C2.82142442 61.63167847 2.64284885 62.26335694 2.45886189 62.91417718 C1.97953047 65.09304719 1.86944526 67.02675894 1.8613348 69.25597763 C1.85586036 70.10344016 1.85038591 70.95090269 1.84474558 71.8240459 C1.84376747 72.75011307 1.84278936 73.67618024 1.84178162 74.63031006 C1.83437465 76.11164079 1.83437465 76.11164079 1.82681805 77.62289739 C1.8114268 80.94097935 1.80307799 84.25904195 1.79467773 87.57714844 C1.78510049 89.95209423 1.7750905 92.32703831 1.76467896 94.70198059 C1.74041989 100.48735079 1.7206835 106.27272377 1.70292621 112.0581173 C1.68202142 118.78983963 1.65556289 125.52153664 1.62875474 132.25323763 C1.58109412 144.25816797 1.53782579 156.26310997 1.49731445 168.26806641 C1.45795174 179.92985949 1.41652366 191.59164221 1.37231445 203.25341797 C1.36959018 203.97223301 1.36686591 204.69104805 1.36405908 205.43164536 C1.35037948 209.03772413 1.33665923 212.64380274 1.32291877 216.24988127 C1.20897803 246.16656597 1.10223646 276.08327287 1 306 C0.67 306 0.34 306 0 306 C0 205.02 0 104.04 0 0 Z " fill="#DBDBDB" transform="translate(0,0)"/>
<path d="M0 0 C5.28 0 10.56 0 16 0 C17.10437112 2.20874223 17.35013092 3.91614248 17.68359375 6.359375 C17.80669922 7.22820312 17.92980469 8.09703125 18.05664062 8.9921875 C18.30835642 10.81486803 18.55838677 12.63778221 18.80664062 14.4609375 C19.47791633 19.17725799 20.2876746 23.52275089 22 28 C22.12117188 26.98421875 22.24234375 25.9684375 22.3671875 24.921875 C23.37831298 16.57246059 24.54970396 8.28740595 26 0 C31.61 0 37.22 0 43 0 C41.69387526 8.36422188 40.02667873 16.5329214 38 24.75 C37.73960937 25.82121094 37.47921875 26.89242188 37.2109375 27.99609375 C35.82920813 33.66955829 34.42267095 39.33667526 33 45 C31.68 45 30.36 45 29 45 C29 51.93 29 58.86 29 66 C23.72 66 18.44 66 13 66 C13 59.07 13 52.14 13 45 C11.68 45 10.36 45 9 45 C7.87271125 40.03924001 6.75195044 35.07706473 5.63696289 30.11352539 C5.25752724 28.42856021 4.87637487 26.7439806 4.4934082 25.05981445 C3.94019458 22.62553025 3.39336758 20.18988188 2.84765625 17.75390625 C2.6778273 17.01290176 2.50799835 16.27189728 2.33302307 15.50843811 C1.18670983 10.35246227 0.51146422 5.25785219 0 0 Z " fill="#F6F6F6" transform="translate(284,241)"/>
<path d="M0 0 C23.76 0 47.52 0 72 0 C72 100.98 72 201.96 72 306 C71.67 306 71.34 306 71 306 C70.99780016 304.15766612 70.99780016 304.15766612 70.99555588 302.27811337 C70.95979438 273.0720277 70.90346761 243.86604376 70.82207905 214.6600528 C70.81206252 211.05925761 70.80221823 207.45846197 70.79248047 203.85766602 C70.7905391 203.14086251 70.78859772 202.42405901 70.78659752 201.68553419 C70.75564154 190.10442359 70.7386148 178.52333276 70.72680578 166.94218861 C70.71436093 155.04415948 70.68678474 143.14623355 70.64538693 131.24826962 C70.62258406 124.5715495 70.60708744 117.89494006 70.60811615 111.21816826 C70.60886461 104.925097 70.59083872 98.63235033 70.55883217 92.3393631 C70.55036075 90.03810928 70.54856433 87.73681893 70.55419731 85.43555641 C70.60681053 60.6233153 65.34800708 40.99197941 47.765625 22.671875 C34.30247592 9.73669255 18.02466708 4.21087187 0 1 C0 0.67 0 0.34 0 0 Z " fill="#E9E9E9" transform="translate(306,0)"/>
<path d="M0 0 C9.57 0 19.14 0 29 0 C29 4.29 29 8.58 29 13 C24.71 13 20.42 13 16 13 C16 17.62 16 22.24 16 27 C19.96 27 23.92 27 28 27 C28.07972012 31.7034873 27.93491183 35.32544083 27 40 C23.37 40 19.74 40 16 40 C16 48.58 16 57.16 16 66 C10.72 66 5.44 66 0 66 C0 44.22 0 22.44 0 0 Z " fill="#F5F5F5" transform="translate(53,241)"/>
<path d="M0 0 C0.33 0 0.66 0 1 0 C1.23074219 1.16015625 1.46148437 2.3203125 1.69921875 3.515625 C6.31967348 25.97677138 15.6675217 44.21679359 34.6953125 57.89453125 C46.13963207 65.18588851 58.50581761 69.46657018 72 71 C72 71.33 72 71.66 72 72 C48.24 72 24.48 72 0 72 C0 48.24 0 24.48 0 0 Z " fill="#FCFCFC" transform="translate(0,306)"/>
<path d="M0 0 C11.22 0 22.44 0 34 0 C34 4.62 34 9.24 34 14 C31.03 14 28.06 14 25 14 C25 31.16 25 48.32 25 66 C19.72 66 14.44 66 9 66 C9 48.84 9 31.68 9 14 C6.03 14 3.06 14 0 14 C0 9.38 0 4.76 0 0 Z " fill="#F6F6F6" transform="translate(169,241)"/>
<path d="M0 0 C0.495 1.485 0.495 1.485 1 3 C-0.55128881 5.42720664 -2.12387583 7.66291646 -3.875 9.9375 C-4.81555034 11.17149179 -5.75065208 12.40965962 -6.6796875 13.65234375 C-7.09976074 14.19882568 -7.51983398 14.74530762 -7.95263672 15.30834961 C-9.10829594 16.97800478 -9.10829594 16.97800478 -9.49658203 19.06079102 C-10.29703626 22.14420902 -12.77978854 23.77978854 -15 26 C-16.75072715 29.08333587 -16.75072715 29.08333587 -18 32 C-18.495 32.99 -18.495 32.99 -19 34 C-19.99 34 -20.98 34 -22 34 C-22.309375 35.485 -22.309375 35.485 -22.625 37 C-23.94410555 41.67422183 -26.66122396 45.50698702 -30 49 C-30.66 49 -31.32 49 -32 49 C-32.66 51.64 -33.32 54.28 -34 57 C-35.32 57 -36.64 57 -38 57 C-36.35821735 52.22390502 -33.73453298 48.20617096 -31 44 C-32.24716797 44.66708984 -32.24716797 44.66708984 -33.51953125 45.34765625 C-34.60621094 45.91355469 -35.69289062 46.47945312 -36.8125 47.0625 C-37.89144531 47.63097656 -38.97039062 48.19945312 -40.08203125 48.78515625 C-43 50 -43 50 -46 49 C-44.125 45.125 -44.125 45.125 -43 44 C-46.63 43.67 -50.26 43.34 -54 43 C-54 42.67 -54 42.34 -54 42 C-45.42 42 -36.84 42 -28 42 C-27.34 40.35 -26.68 38.7 -26 37 C-24.3966365 34.6783749 -22.76868164 32.43017211 -21.0625 30.1875 C-16.94590478 24.68013527 -12.94538646 19.11228385 -9.0625 13.4375 C-8.61463135 12.78354248 -8.1667627 12.12958496 -7.70532227 11.45581055 C-5.11038796 7.65463533 -2.54615407 3.83399999 0 0 Z " fill="#DB514C" transform="translate(207,93)"/>
<path d="M0 0 C2.97 0.495 2.97 0.495 6 1 C6.02685938 3.14576637 6.04633088 5.29162645 6.0625 7.4375 C6.07410156 8.63246094 6.08570313 9.82742188 6.09765625 11.05859375 C6 14 6 14 5 15 C2.5 15.125 2.5 15.125 0 15 C-1 14 -1 14 -1.09765625 11.71484375 C-1.04882812 7.85742188 -1.04882812 7.85742188 -1 4 C-6.28 4 -11.56 4 -17 4 C-17 3.67 -17 3.34 -17 3 C-11.72 3 -6.44 3 -1 3 C-0.67 2.01 -0.34 1.02 0 0 Z " fill="#0F0F0F" transform="translate(262,281)"/>
<path d="M0 0 C0.33 0.66 0.66 1.32 1 2 C-0.27037102 4.40463085 -1.57524383 6.69159714 -3 9 C-3.556875 9.94875 -4.11375 10.8975 -4.6875 11.875 C-6 14 -6 14 -7 15 C0.26 15.33 7.52 15.66 15 16 C15.66 14.68 16.32 13.36 17 12 C17.66 12.33 18.32 12.66 19 13 C17.90112305 15.46948242 17.90112305 15.46948242 16 18 C13.08911133 18.56762695 13.08911133 18.56762695 9.58203125 18.48828125 C8.32841797 18.47216797 7.07480469 18.45605469 5.78320312 18.43945312 C4.47287109 18.39755859 3.16253906 18.35566406 1.8125 18.3125 C0.47725471 18.28741661 -0.85803529 18.26460348 -2.19335938 18.24414062 C-5.46336707 18.18511522 -8.73112333 18.10281476 -12 18 C-10.72886928 15.33521993 -9.34504826 12.93929759 -7.6171875 10.546875 C-7.17246094 9.928125 -6.72773438 9.309375 -6.26953125 8.671875 C-5.80933594 8.03765625 -5.34914062 7.4034375 -4.875 6.75 C-4.17310547 5.77546875 -4.17310547 5.77546875 -3.45703125 4.78125 C-2.30725718 3.18564517 -1.15397434 1.59256975 0 0 Z " fill="#350603" transform="translate(163,117)"/>
<path d="M0 0 C12.87 0 25.74 0 39 0 C39 1.65 39 3.3 39 5 C38.01 5.33 37.02 5.66 36 6 C36.33 4.68 36.66 3.36 37 2 C31.92749086 2.06881974 26.85581061 2.15675694 21.78393555 2.26245117 C20.05844307 2.29571172 18.33284151 2.32374019 16.60717773 2.34643555 C14.12696834 2.37996153 11.6477597 2.43227406 9.16796875 2.48828125 C8.01001045 2.49786613 8.01001045 2.49786613 6.82865906 2.50764465 C2.61306923 2.58765754 2.61306923 2.58765754 -1.01049805 4.53198242 C-1.33703369 5.01642822 -1.66356934 5.50087402 -2 6 C-2 4.68 -2 3.36 -2 2 C-1.34 2 -0.68 2 0 2 C0 1.34 0 0.68 0 0 Z " fill="#441210" transform="translate(220,72)"/>
<path d="M0 0 C0.495 1.485 0.495 1.485 1 3 C1.66 3 2.32 3 3 3 C3 3.66 3 4.32 3 5 C1.68 5.33 0.36 5.66 -1 6 C-1 5.34 -1 4.68 -1 4 C-11.89 3.67 -22.78 3.34 -34 3 C-34.66 4.65 -35.32 6.3 -36 8 C-37 5 -37 5 -36.0625 2.8125 C-35.5365625 1.9153125 -35.5365625 1.9153125 -35 1 C-31.22933539 0.82936937 -27.45844778 0.66424375 -23.6875 0.5 C-22.1087207 0.42845703 -22.1087207 0.42845703 -20.49804688 0.35546875 C-13.66024136 0.06091713 -6.84391539 -0.06137276 0 0 Z " fill="#3D110F" transform="translate(193,71)"/>
<path d="M0 0 C2.48904468 2.48904468 2.35528113 3.55849404 2.6328125 7.0078125 C2.71660156 7.99394531 2.80039063 8.98007812 2.88671875 9.99609375 C2.96535156 11.02863281 3.04398438 12.06117188 3.125 13.125 C3.21136719 14.16527344 3.29773438 15.20554687 3.38671875 16.27734375 C3.59922379 18.85101589 3.80329156 21.42508017 4 24 C2.02 24 0.04 24 -2 24 C-1.8583467 21.12473931 -1.71181468 18.24986464 -1.5625 15.375 C-1.52318359 14.56675781 -1.48386719 13.75851562 -1.44335938 12.92578125 C-1.21203918 8.54849135 -0.83079083 4.31452719 0 0 Z " fill="#121212" transform="translate(221,256)"/>
<path d="M0 0 C2.83861786 2.83861786 2.70704565 5.92674544 3.125 9.75 C3.21136719 10.45382812 3.29773438 11.15765625 3.38671875 11.8828125 C3.86226761 15.94384877 4.09016352 19.90400018 4 24 C2.02 24 0.04 24 -2 24 C-1.8583467 21.12473931 -1.71181468 18.24986464 -1.5625 15.375 C-1.52318359 14.56675781 -1.48386719 13.75851562 -1.44335938 12.92578125 C-1.21203918 8.54849135 -0.83079083 4.31452719 0 0 Z " fill="#111111" transform="translate(102,256)"/>
<path d="M0 0 C15.84 0.495 15.84 0.495 32 1 C28.91014273 3.31739296 26.28287889 4.99373333 22.875 6.6875 C21.57175781 7.34298828 21.57175781 7.34298828 20.2421875 8.01171875 C18 9 18 9 16 9 C16.33 8.01 16.66 7.02 17 6 C18.32303717 5.6278958 19.65737935 5.29369827 21 5 C21.33 4.34 21.66 3.68 22 3 C14.74 3 7.48 3 0 3 C0 2.01 0 1.02 0 0 Z " fill="#C94C4A" transform="translate(187,174)"/>
<path d="M0 0 C1.69433918 3.0469629 2.49467112 5.82821466 3.125 9.25 C3.29257812 10.14203125 3.46015625 11.0340625 3.6328125 11.953125 C3.75398438 12.62859375 3.87515625 13.3040625 4 14 C3.34 14 2.68 14 2 14 C1.67 16.97 1.34 19.94 1 23 C-4.28 23 -9.56 23 -15 23 C-15 22.67 -15 22.34 -15 22 C-10.05 22 -5.1 22 0 22 C-0.103125 19.793125 -0.20625 17.58625 -0.3125 15.3125 C-0.37050781 14.07113281 -0.42851562 12.82976562 -0.48828125 11.55078125 C-1.00910976 7.93678801 -1.90154617 5.94233607 -4 3 C-2.68 2.01 -1.36 1.02 0 0 Z " fill="#393939" transform="translate(283,241)"/>
<path d="M0 0 C1.5077167 0.00063221 3.01552712 0.02316954 4.52270508 0.06347656 C5.31751785 0.06913635 6.11233063 0.07479614 6.93122864 0.08062744 C9.46884498 0.10301153 12.00504713 0.15320894 14.54223633 0.20410156 C16.26291905 0.22416406 17.98362392 0.24241527 19.7043457 0.25878906 C23.92168715 0.30288262 28.13797201 0.37192191 32.35473633 0.45410156 C30.55645274 5.09688205 28.32401131 8.46902198 25.35473633 12.45410156 C25.02473633 11.13410156 24.69473633 9.81410156 24.35473633 8.45410156 C25.34473633 8.12410156 26.33473633 7.79410156 27.35473633 7.45410156 C27.68473633 5.80410156 28.01473633 4.15410156 28.35473633 2.45410156 C23.97651724 2.38002966 19.5986285 2.32553781 15.2199707 2.28930664 C13.72999724 2.27420556 12.24006832 2.25372298 10.75024414 2.2277832 C8.61048402 2.19145572 6.47131066 2.17438936 4.33129883 2.16113281 C3.04304199 2.14542236 1.75478516 2.12971191 0.42749023 2.11352539 C-0.58651855 2.22591553 -1.60052734 2.33830566 -2.64526367 2.45410156 C-3.63526367 3.93910156 -3.63526367 3.93910156 -4.64526367 5.45410156 C-5.30526367 5.12410156 -5.96526367 4.79410156 -6.64526367 4.45410156 C-4.87370718 0.91710795 -4.0061802 0.49906203 0 0 Z " fill="#E05655" transform="translate(224.645263671875,73.5458984375)"/>
<path d="M0 0 C2.49996572 3.74994859 4.86494736 7.5799586 7.24609375 11.40625 C8.70492608 13.56363233 10.08056174 15.26252683 12 17 C11.67 17.66 11.34 18.32 11 19 C9.62437146 17.71034824 8.29233607 16.37310707 7 15 C7 14.34 7 13.68 7 13 C6.34 13 5.68 13 5 13 C5 12.34 5 11.68 5 11 C3.35 11.33 1.7 11.66 0 12 C-2.17975966 8.73036051 -2.36904422 7.78270322 -2 4 C-1 1.6875 -1 1.6875 0 0 Z " fill="#1E0203" transform="translate(154,179)"/>
<path d="M0 0 C0.99 0.66 1.98 1.32 3 2 C0.88226772 5.15078327 -1.24538187 8.29474075 -3.375 11.4375 C-4.27992188 12.78424805 -4.27992188 12.78424805 -5.203125 14.15820312 C-6.07324219 15.43920898 -6.07324219 15.43920898 -6.9609375 16.74609375 C-7.76217041 17.93223267 -7.76217041 17.93223267 -8.57958984 19.14233398 C-10 21 -10 21 -12 22 C-11.47731534 19.23723823 -10.89130413 16.6739124 -10 14 C-9.34 14 -8.68 14 -8 14 C-7.67 12.35 -7.34 10.7 -7 9 C-6.34 9 -5.68 9 -5 9 C-4.67 8.34 -4.34 7.68 -4 7 C-3.34 6.01 -2.68 5.02 -2 4 C-1.34 4 -0.68 4 0 4 C0 2.68 0 1.36 0 0 Z " fill="#E24E4C" transform="translate(205,144)"/>
<path d="M0 0 C1.125 1.75 1.125 1.75 2 4 C0.96887462 7.214685 -0.75056385 8.84650568 -3.375 10.875 C-6.71498247 13.60834682 -8.79913114 16.30254032 -11 20 C-11.66 19.67 -12.32 19.34 -13 19 C-12.56429687 18.38253906 -12.12859375 17.76507813 -11.6796875 17.12890625 C-7.70246352 11.47298384 -3.80635134 5.77226906 0 0 Z " fill="#230403" transform="translate(180,92)"/>
<path d="M0 0 C0 3.34419152 -0.47519394 4.06840321 -2.375 6.6875 C-2.81585938 7.31011719 -3.25671875 7.93273437 -3.7109375 8.57421875 C-4.13632813 9.04472656 -4.56171875 9.51523438 -5 10 C-5.66 10 -6.32 10 -7 10 C-7.66 12.64 -8.32 15.28 -9 18 C-10.32 18 -11.64 18 -13 18 C-11.57161648 13.93687797 -9.60352958 10.78098171 -7.0625 7.3125 C-6.37285156 6.35988281 -5.68320313 5.40726563 -4.97265625 4.42578125 C-3 2 -3 2 0 0 Z " fill="#E54F49" transform="translate(182,132)"/>
<path d="M0 0 C-3.07956288 1.65296119 -6.16426079 3.29610171 -9.25 4.9375 C-10.12269531 5.40607422 -10.99539062 5.87464844 -11.89453125 6.35742188 C-13.16103516 7.0293457 -13.16103516 7.0293457 -14.453125 7.71484375 C-15.22817383 8.12855225 -16.00322266 8.54226074 -16.80175781 8.96850586 C-18.8706075 9.9392844 -20.7690269 10.53558429 -23 11 C-22.34 9.68 -21.68 8.36 -21 7 C-19.68 7 -18.36 7 -17 7 C-16.67 6.01 -16.34 5.02 -16 4 C-14.68 4.33 -13.36 4.66 -12 5 C-12 4.34 -12 3.68 -12 3 C-10.02 2.67 -8.04 2.34 -6 2 C-6 1.34 -6 0.68 -6 0 C-3 -1 -3 -1 0 0 Z " fill="#E65051" transform="translate(161,144)"/>
<path d="M0 0 C0 3.81991716 -1.23261227 5.11307909 -3.4375 8.1875 C-4.07558594 9.08855469 -4.71367187 9.98960937 -5.37109375 10.91796875 C-5.90863281 11.60503906 -6.44617188 12.29210937 -7 13 C-7.33 13 -7.66 13 -8 13 C-8 11.35 -8 9.7 -8 8 C-9.32 7.34 -10.64 6.68 -12 6 C-8.04 4.02 -4.08 2.04 0 0 Z " fill="#210404" transform="translate(176,136)"/>
<path d="M0 0 C0.66 0 1.32 0 2 0 C-0.08737641 4.36181759 -2.76492127 8.21209487 -5.5 12.1875 C-6.24830078 13.29254883 -6.24830078 13.29254883 -7.01171875 14.41992188 C-7.49253906 15.12052734 -7.97335938 15.82113281 -8.46875 16.54296875 C-8.90638672 17.18258545 -9.34402344 17.82220215 -9.79492188 18.48120117 C-11 20 -11 20 -13 21 C-12.01 17.535 -12.01 17.535 -11 14 C-10.34 14 -9.68 14 -9 14 C-8.67 12.35 -8.34 10.7 -8 9 C-7.01 8.67 -6.02 8.34 -5 8 C-4.67 7.175 -4.34 6.35 -4 5.5 C-3.67 4.675 -3.34 3.85 -3 3 C-2.01 2.67 -1.02 2.34 0 2 C0 1.34 0 0.68 0 0 Z " fill="#E0524C" transform="translate(188,78)"/>
<path d="M0 0 C0.82638376 2.89234315 1 4.88742431 1 8 C1.66 8.66 2.32 9.32 3 10 C3.57020611 12.02739952 3.94816408 14.05632289 4.33984375 16.125 C4.92390642 18.38304501 4.92390642 18.38304501 8 20 C8.1875 22.625 8.1875 22.625 8 25 C3.15876693 21.05529157 -0.41526511 14.86574736 -1.3515625 8.67578125 C-1.38628596 5.54488275 -0.99044536 2.97133609 0 0 Z " fill="#DB504C" transform="translate(155,168)"/>
<path d="M0 0 C-1.28946305 1.79325326 -2.58164352 3.58455278 -3.875 5.375 C-4.95394531 6.87160156 -4.95394531 6.87160156 -6.0546875 8.3984375 C-8 11 -8 11 -10 13 C-10 11.35 -10 9.7 -10 8 C-9.34 8 -8.68 8 -8 8 C-8.33 5.69 -8.66 3.38 -9 1 C-2.25 -1.125 -2.25 -1.125 0 0 Z " fill="#EE4E46" transform="translate(171,107)"/>
<path d="M0 0 C0.99 0 1.98 0 3 0 C1.34832443 3.5786304 -0.78286492 6.74820188 -3 10 C-3.33 9.34 -3.66 8.68 -4 8 C-5.65 8 -7.3 8 -9 8 C-8.00269864 5.5067466 -7.34925469 4.22532561 -5.0625 2.75 C-3 2 -3 2 0 2 C0 1.34 0 0.68 0 0 Z " fill="#F54C43" transform="translate(239,96)"/>
<path d="M0 0 C1 2 1 2 0 6 C9.24 6 18.48 6 28 6 C27.67 6.66 27.34 7.32 27 8 C16.77 7.67 6.54 7.34 -4 7 C-2 2 -2 2 0 0 Z " fill="#220000" transform="translate(192,168)"/>
<path d="M0 0 C0.99 0 1.98 0 3 0 C1.61219205 3.89006773 -0.2152227 6.96558708 -2.625 10.3125 C-3.25664062 11.19550781 -3.88828125 12.07851562 -4.5390625 12.98828125 C-5.02117187 13.65214844 -5.50328125 14.31601563 -6 15 C-7.09658936 11.71023192 -6.79953138 10.28696233 -6 7 C-5.34 7 -4.68 7 -4 7 C-3.34 6.01 -2.68 5.02 -2 4 C-1.34 4 -0.68 4 0 4 C0 2.68 0 1.36 0 0 Z " fill="#E54F4D" transform="translate(221,121)"/>
<path d="M0 0 C1 3 1 3 0.125 4.9375 C-0.24625 5.618125 -0.6175 6.29875 -1 7 C-1.0825 7.70125 -1.165 8.4025 -1.25 9.125 C-1.4975 9.74375 -1.745 10.3625 -2 11 C-5.0625 12.25 -5.0625 12.25 -8 13 C-8 13.66 -8 14.32 -8 15 C-8.66 14.67 -9.32 14.34 -10 14 C-6.7 9.38 -3.4 4.76 0 0 Z " fill="#2A0404" transform="translate(191,77)"/>
<path d="M0 0 C1 2 1 2 0.36328125 4.12890625 C0.01652344 4.93199219 -0.33023438 5.73507813 -0.6875 6.5625 C-1.02136719 7.36816406 -1.35523438 8.17382812 -1.69921875 9.00390625 C-3 11 -3 11 -5.06640625 11.6171875 C-5.70449219 11.74351563 -6.34257812 11.86984375 -7 12 C-8.29660434 14.49034386 -8.29660434 14.49034386 -9 17 C-9.66 17 -10.32 17 -11 17 C-9.24933204 13.11390189 -6.81675994 9.72187742 -4.375 6.25 C-3.95476562 5.64800781 -3.53453125 5.04601562 -3.1015625 4.42578125 C-2.07006863 2.94886957 -1.03535421 1.47420806 0 0 Z " fill="#2D0505" transform="translate(250,85)"/>
<path d="M0 0 C0.99 0.33 1.98 0.66 3 1 C1.35828571 3.50279492 -0.28810259 6.00227677 -1.9375 8.5 C-2.40607422 9.21542969 -2.87464844 9.93085937 -3.35742188 10.66796875 C-4.54548488 12.46288408 -5.76986521 14.2336526 -7 16 C-7.33 16 -7.66 16 -8 16 C-8 14.35 -8 12.7 -8 11 C-7.01 11 -6.02 11 -5 11 C-4.87625 10.443125 -4.7525 9.88625 -4.625 9.3125 C-3.63008238 5.63130481 -2.72434154 2.72434154 0 0 Z " fill="#280403" transform="translate(141,96)"/>
<path d="M0 0 C-1.37154504 2.95409701 -2.98863724 5.44008376 -5 8 C-5.99 7.67 -6.98 7.34 -8 7 C-8 6.34 -8 5.68 -8 5 C-8.66 4.67 -9.32 4.34 -10 4 C-8.71086513 3.32845067 -7.41859796 2.66291141 -6.125 2 C-5.40570313 1.62875 -4.68640625 1.2575 -3.9453125 0.875 C-2 0 -2 0 0 0 Z " fill="#1E0508" transform="translate(207,182)"/>
<path d="M0 0 C1.33332095 2.6666419 0.67102033 4.16680303 0 7 C-0.66 7 -1.32 7 -2 7 C-2 9.31 -2 11.62 -2 14 C-1.34 14 -0.68 14 0 14 C0 15.98 0 17.96 0 20 C-3.02600634 16.97399366 -3.17513525 14.23008375 -3.25 10.125 C-3.225515 5.93806465 -2.68711698 3.35889623 0 0 Z " fill="#D74F4E" transform="translate(125,124)"/>
<path d="M0 0 C1 3 1 3 0.0625 5.1875 C-0.4634375 6.0846875 -0.4634375 6.0846875 -1 7 C-0.34 7 0.32 7 1 7 C0.625 8.9375 0.625 8.9375 0 11 C-0.99 11.495 -0.99 11.495 -2 12 C-2.66 11.34 -3.32 10.68 -4 10 C-2.99806563 6.20696275 -2.18975773 3.28463659 0 0 Z " fill="#EC4E47" transform="translate(159,162)"/>
<path d="M0 0 C0.33 0 0.66 0 1 0 C1.10957031 0.65226563 1.21914062 1.30453125 1.33203125 1.9765625 C2.26508962 7.1197623 3.34784083 11.41899779 6 16 C4.68 16.33 3.36 16.66 2 17 C2 15.02 2 13.04 2 11 C1.34 11 0.68 11 0 11 C0 7.37 0 3.74 0 0 Z " fill="#290503" transform="translate(121,132)"/>
<path d="M0 0 C1.32 0 2.64 0 4 0 C4.33 0.99 4.66 1.98 5 3 C7.00016466 4.20882096 7.00016466 4.20882096 9 5 C8.01 6.32 7.02 7.64 6 9 C4.99712471 7.68969568 3.99777175 6.37669473 3 5.0625 C2.443125 4.33160156 1.88625 3.60070312 1.3125 2.84765625 C0 1 0 1 0 0 Z " fill="#E14C4A" transform="translate(125,144)"/>
<path d="M0 0 C0.66 0.33 1.32 0.66 2 1 C0.34832443 4.5786304 -1.78286492 7.74820188 -4 11 C-4.66 10.01 -5.32 9.02 -6 8 C-5.54625 7.5875 -5.0925 7.175 -4.625 6.75 C-2.93624539 4.93134119 -2.0430997 3.23521363 -1 1 C-0.67 0.67 -0.34 0.34 0 0 Z " fill="#E44E4C" transform="translate(191,165)"/>
<path d="M0 0 C0 3.99904969 -1.72586967 5.80200422 -4 9 C-4.33 8.01 -4.66 7.02 -5 6 C-5.99 5.34 -6.98 4.68 -8 4 C-5.36 2.68 -2.72 1.36 0 0 Z " fill="#390603" transform="translate(176,136)"/>
<path d="M0 0 C0 3.34419152 -0.47519394 4.06840321 -2.375 6.6875 C-2.81585938 7.31011719 -3.25671875 7.93273437 -3.7109375 8.57421875 C-4.13632813 9.04472656 -4.56171875 9.51523438 -5 10 C-5.66 10 -6.32 10 -7 10 C-6.52727227 5.74545047 -4.03562624 3.80795427 -1 1 C-0.67 0.67 -0.34 0.34 0 0 Z " fill="#F14E4F" transform="translate(182,132)"/>
<path d="M0 0 C0.66 0.33 1.32 0.66 2 1 C-0.31 4.3 -2.62 7.6 -5 11 C-5.33 9.68 -5.66 8.36 -6 7 C-4.625 5.4375 -4.625 5.4375 -3 4 C-2.67 3.01 -2.34 2.02 -2 1 C-1.34 0.67 -0.68 0.34 0 0 Z " fill="#DB4E4D" transform="translate(232,108)"/>
<path d="M0 0 C0.66 1.32 1.32 2.64 2 4 C-0.3125 6.5 -0.3125 6.5 -3 9 C-3.99 9 -4.98 9 -6 9 C-4.02 6.03 -2.04 3.06 0 0 Z " fill="#330706" transform="translate(180,92)"/>
<path d="M0 0 C0.99 0.66 1.98 1.32 3 2 C1.35 4.31 -0.3 6.62 -2 9 C-3 5 -3 5 -2.125 2.8125 C-1 1 -1 1 0 0 Z " fill="#250504" transform="translate(149,84)"/>
<path d="M0 0 C0.33 0 0.66 0 1 0 C1.66 4.62 2.32 9.24 3 14 C2.01 13.67 1.02 13.34 0 13 C0 8.71 0 4.42 0 0 Z " fill="#E0E0E0" transform="translate(0,306)"/>
<path d="M0 0 C0 3 0 3 -1.625 4.6875 C-4.58198664 6.32162419 -6.67179946 6.22692276 -10 6 C-7.27521226 2.63408573 -3.93143208 1.55773724 0 0 Z " fill="#290402" transform="translate(180,195)"/>
<path d="M0 0 C0.99 0.33 1.98 0.66 3 1 C1.02 3.97 -0.96 6.94 -3 10 C-3.33 8.68 -3.66 7.36 -4 6 C-3.01 5.67 -2.02 5.34 -1 5 C-0.67 3.35 -0.34 1.7 0 0 Z " fill="#DB4F4B" transform="translate(253,76)"/>
<path d="M0 0 C0.66 0.33 1.32 0.66 2 1 C-0.31 4.3 -2.62 7.6 -5 11 C-5.33 10.01 -5.66 9.02 -6 8 C-4.1875 4.8125 -4.1875 4.8125 -2 2 C-1.34 2 -0.68 2 0 2 C0 1.34 0 0.68 0 0 Z " fill="#330605" transform="translate(197,105)"/>
<path d="M0 0 C1 2 1 2 0.875 3.8125 C-0.59948183 7.49870459 -3.46552229 10.23276114 -7 12 C-5.44298069 7.32894208 -2.91552627 3.91294315 0 0 Z " fill="#D34C4C" transform="translate(144,96)"/>
<path d="M0 0 C0.99 0 1.98 0 3 0 C1.70700306 2.88437779 0.34058637 4.87219421 -2 7 C-2 6.01 -2 5.02 -2 4 C-2.66 3.67 -3.32 3.34 -4 3 C-2.68 2.67 -1.36 2.34 0 2 C0 1.34 0 0.68 0 0 Z " fill="#E44E4F" transform="translate(239,96)"/>
<path d="M0 0 C0.33 1.32 0.66 2.64 1 4 C0.01 4.33 -0.98 4.66 -2 5 C-2.69937532 6.31647119 -3.36729133 7.65022151 -4 9 C-4.99 9.495 -4.99 9.495 -6 10 C-4.6302836 6.00499382 -2.74277578 3.19990508 0 0 Z " fill="#D64F4B" transform="translate(166,152)"/>
<path d="M0 0 C0.99 0.33 1.98 0.66 3 1 C3.6875 3.0625 3.6875 3.0625 4 5 C2.35 5.33 0.7 5.66 -1 6 C-1.042721 4.33388095 -1.04063832 2.66617115 -1 1 C-0.67 0.67 -0.34 0.34 0 0 Z " fill="#110309" transform="translate(154,160)"/>
<path d="M0 0 C0.99 0 1.98 0 3 0 C1.8141763 3.37503669 0.72426311 5.64722731 -2 8 C-2.20086443 4.28400809 -2.1519437 3.22791555 0 0 Z " fill="#E15049" transform="translate(210,137)"/>
<path d="M0 0 C1.33332095 2.6666419 0.67102033 4.16680303 0 7 C-1.32 7 -2.64 7 -4 7 C-2.92598892 4.08482708 -2.22189824 2.22189824 0 0 Z " fill="#310302" transform="translate(192,168)"/>
<path d="M0 0 C0.66 0.33 1.32 0.66 2 1 C2 2.32 2 3.64 2 5 C1.34 5.66 0.68 6.32 0 7 C-0.33 7.66 -0.66 8.32 -1 9 C-1.80967438 6.08517222 -2.21845993 4.53886783 -1.0625 1.6875 C-0.711875 1.130625 -0.36125 0.57375 0 0 Z " fill="#F34F4C" transform="translate(134,146)"/>
<path d="M0 0 C0.33 1.32 0.66 2.64 1 4 C-0.4375 6.25 -0.4375 6.25 -2 8 C-2.99 7.67 -3.98 7.34 -5 7 C-3.35 4.69 -1.7 2.38 0 0 Z " fill="#2A0503" transform="translate(210,142)"/>
<path d="M0 0 C1.74627478 2.61941217 2.38722388 4.03824877 3 7 C2.01 7.33 1.02 7.66 0 8 C0 7.01 0 6.02 0 5 C-0.66 4.67 -1.32 4.34 -2 4 C-1.34 2.68 -0.68 1.36 0 0 Z " fill="#2C0B0B" transform="translate(154,179)"/>
<path d="M0 0 C0.99 0.33 1.98 0.66 3 1 C1.68 3.31 0.36 5.62 -1 8 C-1.33 8 -1.66 8 -2 8 C-2 6.35 -2 4.7 -2 3 C-1.34 3 -0.68 3 0 3 C0 2.01 0 1.02 0 0 Z " fill="#DA4C4D" transform="translate(163,112)"/>
</svg>
